<?xml version="1.0" standalone="no"?><!DOCTYPE svg PUBLIC "-//W3C//DTD SVG 1.1//EN" "http://www.w3.org/Graphics/SVG/1.1/DTD/svg11.dtd"><svg t="1498305598307" class="icon" style="" viewBox="0 0 1024 1024" version="1.1" xmlns="http://www.w3.org/2000/svg" p-id="32389" xmlns:xlink="http://www.w3.org/1999/xlink" width="16" height="16"><defs><style type="text/css"></style></defs><path d="M959.294302 802.1421l0 29.91431c0 66.158792-53.508681 119.786177-119.55491 119.786177L182.351118 951.842587c-66.053392 0-119.55798-53.628408-119.55798-119.786177L62.793138 682.351829c0-16.530488 13.398148-29.958312 29.887704-29.958312s29.887704 13.428847 29.887704 29.958312l0 149.70458c0 33.056883 26.801413 59.913555 59.782571 59.913555L839.739393 891.969964c32.982182 0 59.775408-26.856671 59.775408-59.913555L899.514801 682.351829c0-16.530488 13.354146-29.958312 29.887704-29.958312 16.492626 0 29.891797 13.428847 29.891797 29.958312L959.294302 802.1421 959.294302 802.1421 959.294302 802.1421 959.294302 802.1421zM849.238744 316.89337l-308.309878 308.874743L540.928866 98.829889c0-16.530488-13.398148-29.958312-29.887704-29.958312s-29.887704 13.428847-29.887704 29.958312l0 525.145391L172.847673 315.093375c-11.692297-11.721973-30.606065-11.721973-42.257429 0-11.647271 11.676947-11.692297 30.677697 0 42.309618l356.209818 356.942505c0.939395 1.339508 1.571798 2.825348 2.735297 3.991917 0.135076 0.314155 0.135076 0.722454 0.400113 0.942465 0.408299 0.408299 0.98749 0.224104 1.388627 0.587378 4.841262 4.355191 11.07115 7.052626 17.971303 7.497765 1.257643 0.090051 2.245134 0.090051 3.449565 0 6.948249-0.400113 13.174044-3.094478 18.015306-7.497765 0.404206-0.363274 0.98749-0.179079 1.388627-0.587378l359.348298-360.122941c11.651364-11.676947 11.651364-30.680766 0-42.309618C879.800807 305.2154 860.845083 305.2154 849.238744 316.89337L849.238744 316.89337 849.238744 316.89337zM849.238744 316.89337" p-id="32390" fill="#707070"></path></svg>