<?xml version="1.0" standalone="no"?><!DOCTYPE svg PUBLIC "-//W3C//DTD SVG 1.1//EN" "http://www.w3.org/Graphics/SVG/1.1/DTD/svg11.dtd"><svg t="1498305719365" class="icon" style="" viewBox="0 0 1024 1024" version="1.1" xmlns="http://www.w3.org/2000/svg" p-id="33536" xmlns:xlink="http://www.w3.org/1999/xlink" width="16" height="16"><defs><style type="text/css"></style></defs><path d="M727.68 44.16c-89.6 0-160.64 44.8-215.04 118.4-55.04-73.6-125.44-118.4-215.04-118.4-161.92 0-293.76 142.72-293.76 318.72 0 104.96 47.36 178.56 85.12 237.44C198.4 772.48 462.72 957.44 474.24 966.4c11.52 8.96 24.32 12.8 37.76 12.8 13.44 0 26.24-4.48 37.76-12.8 11.52-8.96 275.84-194.56 385.92-366.08 37.76-58.88 85.12-132.48 85.12-237.44C1020.8 187.52 888.96 44.16 727.68 44.16L727.68 44.16 727.68 44.16 727.68 44.16zM888.96 560.64c-106.88 167.04-377.6 355.84-377.6 355.84s-270.72-188.8-377.6-355.84C94.08 499.2 58.88 440.32 58.88 359.68c0-139.52 104.32-252.8 232.96-252.8 95.36 0 163.2 62.08 199.68 150.4l0-0.64 0 0c2.56 8.96 10.88 16 19.84 16 9.6 0 17.28-6.4 19.84-16l0 0c36.48-88.32 104.32-150.4 199.68-150.4 128.64 0 232.96 113.28 232.96 252.8C963.84 440.32 928.64 499.2 888.96 560.64L888.96 560.64 888.96 560.64 888.96 560.64z" p-id="33537" fill="#707070"></path></svg>