<?xml version="1.0" standalone="no"?><!DOCTYPE svg PUBLIC "-//W3C//DTD SVG 1.1//EN" "http://www.w3.org/Graphics/SVG/1.1/DTD/svg11.dtd"><svg t="1498303294170" class="icon" style="" viewBox="0 0 1024 1024" version="1.1" xmlns="http://www.w3.org/2000/svg" p-id="21733" xmlns:xlink="http://www.w3.org/1999/xlink" width="18" height="18"><defs><style type="text/css"></style></defs><path d="M70.84 961.557c-21.374-21.424-28.833-30.417-28.833-34.755 0-4.618 43.188-49.044 204.434-210.295l204.434-204.442-204.434-204.442c-180.378-180.388-204.431-205.275-204.411-211.507 0.019-6.025 4.231-10.883 28.601-32.989 20.96-19.015 30.484-26.128 35.732-26.692 6.657-0.716 21.287 13.364 210.601 202.667l203.445 203.435 204.442-204.434c162.538-162.53 205.657-204.434 210.365-204.434 8.421 0 63.589 55.229 63.589 63.658 0 4.618-43.188 49.044-204.434 210.295l-204.434 204.442 204.434 204.442c180.975 180.986 204.434 205.262 204.434 211.578 0 6.128-4.035 10.791-28.537 32.989-21.067 19.088-30.425 26.054-35.754 26.621-6.739 0.718-20.705-12.718-210.665-202.667l-203.445-203.435-204.442 204.434c-162.538 162.53-205.657 204.434-210.365 204.434-4.435 0-13.159-7.255-34.755-28.901z" p-id="21734" fill="#FFFfff"></path></svg>