<?xml version="1.0" standalone="no"?><!DOCTYPE svg PUBLIC "-//W3C//DTD SVG 1.1//EN" "http://www.w3.org/Graphics/SVG/1.1/DTD/svg11.dtd"><svg t="1498367422671" class="icon" style="" viewBox="0 0 1024 1024" version="1.1" xmlns="http://www.w3.org/2000/svg" p-id="2894" xmlns:xlink="http://www.w3.org/1999/xlink" width="12" height="12"><defs><style type="text/css"></style></defs><path d="M1016.132 960.217c9.493 11.052 14.304 23.405 14.304 36.799 0 15.083-5.332 27.957-16.124 38.619-10.143 10.402-24.057 16.254-38.619 16.124-6.241 0-12.483-1.041-18.465-2.99-5.851-1.95-11.313-4.941-16.124-8.841l-5.982-4.811-293.87-295.951c-70.607 49.932-149.536 74.899-236.788 74.899-8.712 0-17.685-0.39-26.787-1.171-8.972-0.78-17.944-1.95-26.787-3.641-60.465-6.891-118.329-28.087-169.042-61.895-55.393-35.628-99.734-82.699-133.152-141.474-15.994-27.306-28.607-56.434-37.449-86.73-9.102-30.558-14.694-62.025-16.644-93.883s-0.13-63.715 5.332-95.052c7.932-50.712 25.747-99.343 52.403-143.295 26.397-44.081 61.114-82.699 102.334-113.517 34.848-27.697 73.987-49.152 117.159-64.235 42.651-14.954 87.511-22.626 132.632-22.626 19.114 0 37.319 1.171 54.744 3.641 46.812 6.372 91.543 20.545 134.453 42.78 42.13 21.586 79.969 50.583 111.827 85.561 37.189 38.88 65.536 84.78 85.041 137.962 19.506 53.053 27.957 107.016 25.617 161.629-3.121 91.153-34.458 173.203-94.012 246.149l295.041 295.951h-1.041zM754.378 416.947c2.6-48.762-5.461-97.394-23.796-142.645-10.402-27.828-24.316-54.222-41.61-78.408-17.425-24.576-37.839-46.552-61.245-65.926-23.016-19.244-48.372-35.368-75.549-48.111-57.993-26.916-122.23-37.189-185.555-29.646-3.641 0-7.151 0.39-10.662 1.171l-7.151 1.171c-50.712 7.802-98.953 27.176-140.954 56.434-42.261 28.737-77.499 66.706-102.855 111.177-29.256 48.372-45.381 102.205-48.242 161.629-2.73 59.424 8.062 114.558 32.768 165.271 20.545 45.9 51.232 86.601 89.851 118.849 38.23 32.768 83.091 56.694 131.461 70.217 50.712 14.304 101.944 17.034 153.437 8.322 27.046-4.811 53.443-12.743 78.538-23.796 25.095-10.922 48.762-24.706 70.738-40.96 21.846-16.254 41.87-35.109 59.554-55.913 17.815-21.065 32.768-43.82 44.601-68.396 21.976-43.69 34.458-91.543 36.669-140.434z" fill="#ffffff" p-id="2895"></path></svg>