<?xml version="1.0" standalone="no"?><!DOCTYPE svg PUBLIC "-//W3C//DTD SVG 1.1//EN" "http://www.w3.org/Graphics/SVG/1.1/DTD/svg11.dtd"><svg t="1498303597878" class="icon" style="" viewBox="0 0 1024 1024" version="1.1" xmlns="http://www.w3.org/2000/svg" p-id="30595" xmlns:xlink="http://www.w3.org/1999/xlink" width="18" height="18"><defs><style type="text/css"></style></defs><path d="M477.310683 672.604377c-19.340062 0-35.303288 15.860897-35.507945 35.303288l0.61397 150.01339c0 4.502448-1.739582 8.697911-4.911761 11.767763-3.069851 3.069851-7.367643 4.809433-11.665435 4.809433H165.209154c-4.40012 0-8.595583-1.739582-11.767763-4.911762-3.172179-3.172179-4.911762-7.265314-4.809433-11.767762V597.290697c0-4.40012 1.739582-8.595583 4.809433-11.767763 3.172179-3.172179 7.265314-4.911762 11.767763-4.911762h149.911062c19.544719 0 35.507944-15.963226 35.507944-35.507944S334.664935 509.697612 315.120216 509.697612H165.106825c-23.433197 0-45.331468 9.107225-61.908664 25.684421-16.577196 16.577196-25.684421 38.577796-25.582092 62.010992v260.630359c0 23.433197 9.107225 45.433796 25.582092 62.010992 16.577196 16.577196 38.577796 25.684421 61.908664 25.684421h260.732687c23.433197 0 45.433796-9.107225 61.908664-25.684421 16.577196-16.577196 25.684421-38.577796 25.684421-62.113321l-0.61397-150.115719c-0.204657-19.44239-16.167882-35.200959-35.507944-35.200959z" p-id="30596" fill="#FFFfff"></path><path d="M902.587389 122.282402c-28.549615-28.651944-66.615769-44.410513-107.035475-44.410512H240.625162c-11.563106 0-21.795943 4.604777-28.651943 12.893374-5.832717 7.060658-9.107225 16.577196-9.107225 26.810033 0 10.335165 3.274508 20.158689 9.209553 27.730989 6.958329 8.902568 17.088838 13.712002 28.651944 13.81433h554.824423c5.321075 0 10.539822 0.61397 15.65624 1.739582-12.484061 0.511642-24.149495 5.62806-33.052063 14.530628L498.390327 455.361247v-95.779354c0-27.321675-22.205256-49.62926-49.526931-49.62926-13.302688 0-25.684421 5.116419-35.098631 14.530629-9.311882 9.41421-14.530629 21.898271-14.530629 35.098631V575.187769c0 27.321675 22.205256 49.62926 49.526931 49.629259h215.196563c27.321675 0 49.526931-22.307585 49.526931-49.629259 0-13.302688-5.116419-25.684421-14.530629-35.098631-9.41421-9.41421-21.795943-14.530629-35.098631-14.530629h-95.574697l279.663435-280.072749c10.130509-10.232837 14.939942-23.740182 14.4283-37.04287 2.148896 6.753672 3.172179 13.81433 3.17218 21.079644v554.824423c0 25.684421 20.261017 39.089437 40.317378 39.089438 11.563106 0 22.512241-4.297792 29.982212-11.870091 7.060658-7.060658 10.846807-16.474868 10.846807-27.219347v-554.824423c0.306985-40.522035-15.451584-78.588188-44.103527-107.240132z" p-id="30597" fill="#FFFfff"></path></svg>