<?xml version="1.0" standalone="no"?><!DOCTYPE svg PUBLIC "-//W3C//DTD SVG 1.1//EN" "http://www.w3.org/Graphics/SVG/1.1/DTD/svg11.dtd"><svg t="1498301606200" class="icon" style="" viewBox="0 0 1024 1024" version="1.1" xmlns="http://www.w3.org/2000/svg" p-id="2585" xmlns:xlink="http://www.w3.org/1999/xlink" width="40" height="40"><defs><style type="text/css"></style></defs><path d="M865.336374 379.030569" p-id="2586" fill="#E6E5E5"></path><path d="M511.722684 64.052828c-247.229754 0-447.648366 200.418612-447.648366 447.648366s200.418612 447.648366 447.648366 447.648366 447.648366-200.419635 447.648366-447.648366S758.951415 64.052828 511.722684 64.052828zM452.632891 645.995807c0 19.778462-16.033162 35.811624-35.811624 35.811624-19.778462 0-35.811624-16.033162-35.811624-35.811624L381.009643 377.406582c0-19.778462 16.033162-35.811624 35.811624-35.811624 19.778462 0 35.811624 16.033162 35.811624 35.811624L452.632891 645.995807zM644.22651 645.995807c0 19.778462-16.033162 35.811624-35.811624 35.811624s-35.811624-16.033162-35.811624-35.811624L572.603263 377.406582c0-19.778462 16.033162-35.811624 35.811624-35.811624S644.22651 357.62812 644.22651 377.406582L644.22651 645.995807z" p-id="2587" fill="#56D486" class="selected"></path></svg>