<?xml version="1.0" standalone="no"?><!DOCTYPE svg PUBLIC "-//W3C//DTD SVG 1.1//EN" "http://www.w3.org/Graphics/SVG/1.1/DTD/svg11.dtd"><svg t="1498301739964" class="icon" style="" viewBox="0 0 1024 1024" version="1.1" xmlns="http://www.w3.org/2000/svg" p-id="3694" xmlns:xlink="http://www.w3.org/1999/xlink" width="40" height="40"><defs><style type="text/css"></style></defs><path d="M865.336374 379.030569" p-id="3695" fill="#56D486"></path><path d="M511.653099 959.328072c-247.184729 0-447.568549-200.38382-447.568549-447.568549S264.46837 64.190975 511.653099 64.190975s447.568549 200.38382 447.568549 447.568549S758.837828 959.328072 511.653099 959.328072zM659.055241 461.107913c-59.276035-33.768081-118.354572-67.877947-177.237657-102.32755s-88.126106-17.566074-87.732134 50.652634c0.393973 68.218708 0.393973 136.437415 0 204.656123-0.393973 68.218708 28.850072 85.102237 87.732134 50.652634 58.882062-34.450626 117.961622-68.559469 177.237657-102.32755C718.331275 528.644075 718.331275 494.875994 659.055241 461.107913z" p-id="3696" fill="#56D486"></path></svg>