<?xml version="1.0" standalone="no"?><!DOCTYPE svg PUBLIC "-//W3C//DTD SVG 1.1//EN" "http://www.w3.org/Graphics/SVG/1.1/DTD/svg11.dtd"><svg t="1498302022375" class="icon" style="" viewBox="0 0 1024 1024" version="1.1" xmlns="http://www.w3.org/2000/svg" p-id="9439" xmlns:xlink="http://www.w3.org/1999/xlink" width="16" height="16"><defs><style type="text/css"></style></defs><path d="M259.011765 349.364706h505.97647v-60.235294h-505.97647zM259.011765 542.117647h505.97647v-60.235294h-505.97647zM259.011765 728.847059h505.97647v-60.235294h-505.97647z" fill="#707070" p-id="9440"></path><path d="M319.247059 36.141176h-126.494118c-72.282353 0-126.494118 54.211765-126.494117 126.494118v698.729412c0 72.282353 54.211765 126.494118 126.494117 126.494118h632.470588c72.282353 0 126.494118-54.211765 126.494118-126.494118v-698.729412c0-72.282353-54.211765-126.494118-126.494118-126.494118h-120.470588v60.235295h120.470588c36.141176 0 66.258824 30.117647 66.258824 66.258823v698.729412c0 36.141176-30.117647 66.258824-66.258824 66.258823h-632.470588c-36.141176 0-66.258824-30.117647-66.258823-66.258823v-698.729412c0-36.141176 30.117647-66.258824 66.258823-66.258823h126.494118v-60.235295z" fill="#707070" p-id="9441"></path><path d="M385.505882 96.376471h252.988236v-60.235295h-252.988236z" fill="#707070" p-id="9442"></path></svg>