<?xml version="1.0" standalone="no"?><!DOCTYPE svg PUBLIC "-//W3C//DTD SVG 1.1//EN" "http://www.w3.org/Graphics/SVG/1.1/DTD/svg11.dtd"><svg t="1498301939493" class="icon" style="" viewBox="0 0 1024 1024" version="1.1" xmlns="http://www.w3.org/2000/svg" p-id="8151" xmlns:xlink="http://www.w3.org/1999/xlink" width="16" height="16"><defs><style type="text/css"></style></defs><path d="M873.439 305.081c-55.271-55.271-128.756-85.71-206.919-85.71h-307.108v-58.746c0-18.762-12.896-25.785-28.656-15.605l-141.383 91.312c-15.76 10.177-15.606 26.591 0.342 36.471l140.7 87.165c15.95 9.881 28.997 2.614 28.997-16.147v-58.458h307.107c124.969 0 226.638 101.669 226.638 226.638 0 20.663-2.774 41.126-8.244 60.819-4.878 17.558 5.401 35.745 22.959 40.623 2.955 0.821 5.926 1.213 8.851 1.213 14.451 0 27.715-9.569 31.773-24.172 7.069-25.444 10.653-51.85 10.653-78.483 0.001-78.164-30.437-151.65-85.708-206.919zM818.958 751.197l-140.7-87.165c-15.95-9.881-28.997-2.614-28.997 16.147v58.458h-331.6c-124.967 0-226.638-101.668-226.638-226.638 0-43.791 12.502-86.275 36.153-122.86 9.894-15.303 5.508-35.73-9.794-45.622-15.305-9.895-35.73-5.508-45.623 9.795-30.569 47.282-46.726 102.156-46.726 158.687 0 78.163 30.439 151.649 85.709 206.919 55.271 55.269 128.756 85.709 206.919 85.709h331.599v58.746c0 18.762 12.896 25.785 28.656 15.605l141.385-91.311c15.759-10.177 15.606-26.591-0.342-36.471z" p-id="8152" fill="#707070"></path></svg>