<?xml version="1.0" standalone="no"?><!DOCTYPE svg PUBLIC "-//W3C//DTD SVG 1.1//EN" "http://www.w3.org/Graphics/SVG/1.1/DTD/svg11.dtd"><svg t="1498301829887" class="icon" style="" viewBox="0 0 1024 1024" version="1.1" xmlns="http://www.w3.org/2000/svg" p-id="6762" xmlns:xlink="http://www.w3.org/1999/xlink" width="16" height="16"><defs><style type="text/css"></style></defs><path d="M838.733994 895.65489l-51.130518-50.346665c79.672574-90.010013 128.306224-207.370954 128.306224-336.173482 0-128.800481-48.632627-246.162446-128.306224-336.172459l51.130518-50.347688c92.624561 102.901625 148.982126 238.20624 148.982126 386.519124C987.71612 657.44865 931.357532 792.753265 838.733994 895.65489zM698.726264 757.852384l-51.103912-50.346665c44.223201-54.354955 70.817905-123.283838 70.817905-198.370976 0-75.085092-26.594705-144.016021-70.817905-198.428282l51.103912-50.28936c57.111742 67.420529 91.51939 154.062841 91.51939 248.717641C790.245653 603.790566 755.838006 690.432879 698.726264 757.852384zM485.05379 791.882432c-11.846816 0-22.675442-3.89061-31.590486-10.279111l-0.086981 0.116657L270.075577 650.479935 90.113879 650.479935c-29.733185 0-53.831023-23.692608-53.831023-53.019541L36.282856 420.809091c0-29.267581 24.040533-52.960189 53.715389-53.018517l0-0.173962 178.539302 0 182.429913-146.919141 0.145309 0.173962c9.29162-7.491625 20.993127-12.136412 33.942043-12.136412 29.761837 0 53.860698 23.691585 53.860698 52.960189l0 159.113881 0 123.692137 0 52.960189 0 53.019541 0 88.382956C538.915511 768.131495 514.81665 791.882432 485.05379 791.882432z" p-id="6763" fill="#707070"></path></svg>